<svg width="154" height="198" viewBox="0 0 154 198" fill="none" xmlns="http://www.w3.org/2000/svg">
<path fill-rule="evenodd" clip-rule="evenodd" d="M30.9997 0.5C32.3805 0.5 33.4997 1.61929 33.4997 3V22.5H52.9997C54.3805 22.5 55.4997 23.6193 55.4997 25C55.4997 26.3807 54.3805 27.5 52.9997 27.5H33.4997V47C33.4997 48.3807 32.3805 49.5 30.9997 49.5C29.619 49.5 28.4997 48.3807 28.4997 47V27.5H8.99975C7.61904 27.5 6.49975 26.3807 6.49975 25C6.49975 23.6193 7.61904 22.5 8.99975 22.5H28.4997V3C28.4997 1.61929 29.619 0.5 30.9997 0.5ZM108.636 69.6019C115.699 61.2849 118.986 47.8136 116.015 27.8826C114.137 28.5518 112.312 29.1784 110.537 29.7881C106.587 31.1443 102.883 32.4164 99.3845 33.8854C94.2217 36.0533 89.8288 38.5307 86.3429 42.0166C79.9639 48.3957 76.0596 58.7504 77.4709 78.7755C83.7333 73.7323 93.0509 64.8075 97.7636 55.382L98.8817 53.1459L103.354 55.382L102.236 57.6181C97.598 66.8936 89.1134 75.4804 82.646 80.9804C93.8379 80.3126 102.732 76.5536 108.636 69.6019ZM82.8074 38.4811C75.4363 45.8523 71.5088 56.9737 72.2799 75.5114C65.2121 68.3866 56.2362 65.5939 47.5497 65.5818C36.6694 65.5665 26.0493 69.8981 19.804 75.663C8.46747 86.1275 -9.1697 114.305 6.56766 149.971C11.0721 161.175 19.8818 176.775 31.8024 187.044C37.7909 192.203 44.6896 196.124 52.33 197.341C59.8698 198.542 67.9041 197.071 76.1857 191.941C84.4761 197.075 92.5709 198.539 100.193 197.342C107.916 196.128 114.936 192.216 121.049 187.061C133.219 176.799 142.288 161.202 146.804 149.971C154.636 132.221 154.664 114.601 150.139 100.701C145.648 86.9025 136.495 76.3666 125.621 73.5784C124.283 73.2354 122.921 74.0416 122.578 75.3791C122.235 76.7165 123.041 78.0788 124.379 78.4217C133.005 80.6334 141.202 89.3975 145.385 102.249C149.532 114.989 149.564 131.353 142.213 147.99C142.201 148.016 142.19 148.042 142.18 148.069C137.857 158.835 129.182 173.663 117.826 183.239C112.168 188.009 105.968 191.372 99.4162 192.402C92.9242 193.423 85.8683 192.189 78.3436 187.392L76.2355 186.048L76.1857 186.126L76.1358 186.048L74.0278 187.392C66.4965 192.193 59.5045 193.42 53.1164 192.403C46.6682 191.376 40.5982 188.022 35.0659 183.256C23.9589 173.688 15.5253 158.862 11.1916 148.069C11.181 148.042 11.1699 148.016 11.1584 147.99C-3.47412 114.874 12.8694 88.8687 23.1954 79.337C28.4501 74.4866 37.83 70.5681 47.5427 70.5818C57.1257 70.5952 66.8369 74.4206 73.2436 84.812C73.676 85.5135 74.4263 85.9567 75.2494 85.997C90.7228 86.7548 103.969 82.8212 112.447 72.8385C120.902 62.8829 124.105 47.5045 120.864 26.5133C120.43 23.7039 117.532 22.0263 114.894 22.9733C112.97 23.6638 111.037 24.3282 109.119 24.9871C105.073 26.3771 101.1 27.7423 97.4488 29.2753C92.0006 31.563 86.9424 34.346 82.8074 38.4811Z" fill="black"/>
</svg>
