<svg width="217" height="217" viewBox="0 0 217 217" fill="none" xmlns="http://www.w3.org/2000/svg">
<g clip-path="url(#clip0_9284_810)">
<path fill-rule="evenodd" clip-rule="evenodd" d="M5 108.5C5 51.3385 51.3385 5 108.5 5C165.661 5 212 51.3385 212 108.5C212 165.661 165.661 212 108.5 212C51.3385 212 5 165.661 5 108.5ZM108.5 0C48.5771 0 0 48.5771 0 108.5C0 168.423 48.5771 217 108.5 217C168.423 217 217 168.423 217 108.5C217 48.5771 168.423 0 108.5 0ZM89 114H90V115.294L91.3846 114L97.8027 108L98.8724 107H89C87.067 107 85.5 108.567 85.5 110.5C85.5 112.433 87.067 114 89 114ZM90 172.39V137.197L95 132.523V172.39C95 179.349 100.651 185 107.61 185C115.549 185 122 178.549 122 170.61V114H114.814L115.883 113L121.232 108L122.302 107H129C130.933 107 132.5 108.567 132.5 110.5C132.5 112.433 130.933 114 129 114H127V170.61C127 181.311 118.311 190 107.61 190C97.8893 190 90 182.111 90 172.39ZM59.9708 30.0447C59.2752 29.9113 58.5556 30.0793 57.9909 30.5068C57.4262 30.9344 57.0694 31.5814 57.0091 32.2871L59.5 32.5C57.0091 32.2871 57.009 32.2882 57.0088 32.2896L57.0085 32.2934L57.0075 32.3054L57.0042 32.346C57.0015 32.3806 56.9976 32.4299 56.9929 32.4933C56.9835 32.6203 56.9707 32.8041 56.9561 33.0405C56.9269 33.5132 56.8908 34.1969 56.8615 35.0574C56.8028 36.7774 56.7712 39.21 56.8776 42.0821C57.0897 47.8019 57.853 55.3752 60.1044 62.5589C62.3463 69.7123 66.1619 76.7875 72.6984 81.084C78.922 85.1747 87.1834 86.4718 97.9113 83.5904C100.091 88.9034 102.107 95.1676 103.689 102.497L107.918 98.5442C106.319 91.8687 104.368 86.0597 102.265 81.0349C102.367 80.9104 102.475 80.7775 102.587 80.6364C103.411 79.6023 104.496 78.1133 105.555 76.2763C107.65 72.6414 109.768 67.4241 109.292 61.5818C108.805 55.6102 105.643 49.4126 97.9859 43.8896C90.4107 38.4257 78.3936 33.5779 59.9708 30.0447ZM75.4447 76.9057C80.0691 79.9453 86.565 81.299 95.8623 78.9577C95.8171 78.8627 95.7719 78.7681 95.7266 78.6738C91.97 70.8538 87.9858 65.5271 84.9814 62.1819C83.4783 60.5084 82.2186 59.3288 81.3526 58.5798C80.9196 58.2053 80.585 57.9385 80.3677 57.7714C80.259 57.6879 80.1796 57.6293 80.1319 57.5947L80.1062 57.5762L80.0844 57.5606L80.0833 57.5598L79.4382 54.0862C80.2191 52.9475 81.7752 52.6573 82.9139 53.4382L81.5001 55.5C82.9139 53.4382 82.9157 53.4394 82.9177 53.4408L82.9222 53.4439L82.9338 53.4519L82.9663 53.4747C82.9922 53.493 83.0264 53.5173 83.0685 53.5479C83.1527 53.609 83.2689 53.6951 83.4146 53.807C83.7059 54.031 84.1153 54.3586 84.6234 54.798C85.6396 55.6769 87.0505 57.003 88.7013 58.8409C91.9159 62.4201 96.0331 67.933 99.9141 75.8504C100.337 75.2369 100.783 74.5426 101.223 73.7793C103.062 70.5886 104.669 66.4133 104.308 61.9882C103.958 57.6923 101.719 52.7474 95.0609 47.9448C88.6782 43.341 78.2839 38.9173 61.8492 35.5171C61.8001 37.1207 61.7787 39.3218 61.8742 41.8969C62.0778 47.3887 62.8094 54.4711 64.8756 61.0636C66.9512 67.6864 70.2756 73.5081 75.4447 76.9057ZM106.485 121.786C107.376 132.76 107.324 145.424 105.853 159.979C105.714 161.352 106.715 162.578 108.089 162.717C109.462 162.856 110.689 161.855 110.827 160.481C112.504 143.898 112.379 129.65 111.106 117.466L106.485 121.786ZM135.158 62.6942C138.539 62.0355 142.489 61.7461 147.099 61.9153L141.724 66.9399C139.649 67.0484 137.786 67.2763 136.115 67.6019C129.029 68.9823 125.462 72.0931 123.629 75.3434C121.774 78.6316 121.484 82.4316 121.747 85.6162L117.3 89.7729C117.099 88.7866 116.905 87.6023 116.786 86.2855C116.446 82.5471 116.678 77.4882 119.274 72.8865C121.934 68.1717 126.864 64.3101 135.158 62.6942ZM141.057 97.6959C138.624 98.0612 135.955 97.903 133.05 96.9522L128.995 100.743C133.454 102.712 137.736 103.251 141.799 102.64C148.757 101.596 154.519 97.26 159.008 92.3046C163.518 87.3257 166.964 81.4804 169.269 76.937C170.427 74.6544 171.309 72.6754 171.904 71.262C172.202 70.5548 172.428 69.9878 172.581 69.5937C172.658 69.3966 172.716 69.2426 172.756 69.1357C172.776 69.0823 172.792 69.0406 172.802 69.0112L172.815 68.9765L172.819 68.9661L172.82 68.9627C172.821 68.9615 172.821 68.9605 170.47 68.1099L172.821 68.9605C173.062 68.2945 173.009 67.5575 172.676 66.9327C172.342 66.3079 171.759 65.8538 171.072 65.6834C169.828 65.375 168.612 65.087 167.422 64.8187L162.972 68.9791C164.294 69.2463 165.658 69.5413 167.064 69.8654C166.517 71.1371 165.763 72.7962 164.81 74.675C162.608 79.015 159.397 84.4279 155.302 88.9477C151.186 93.4911 146.396 96.8944 141.057 97.6959Z" fill="black"/>
<path d="M32 182L186 36" stroke="black" stroke-width="5" stroke-linecap="round"/>
</g>
<defs>
<clipPath id="clip0_9284_810">
<rect width="217" height="217" fill="white"/>
</clipPath>
</defs>
</svg>
