<svg width="217" height="231" viewBox="0 0 217 231" fill="none" xmlns="http://www.w3.org/2000/svg">
<path d="M139.647 29.8774L140.948 29.6888L141.53 28.5098L153.865 3.51901L153.866 3.51755C154.016 3.21215 154.249 2.95498 154.538 2.77514C154.827 2.59531 155.161 2.5 155.502 2.5C155.842 2.5 156.176 2.59531 156.465 2.77514C156.754 2.95498 156.987 3.21215 157.137 3.51755L157.138 3.5187L169.469 28.5095L170.051 29.6885L171.352 29.8773L198.937 33.8811L198.938 33.8812C199.257 33.9274 199.558 34.0573 199.81 34.2578C200.063 34.4582 200.258 34.722 200.375 35.0223C200.492 35.3226 200.528 35.6486 200.478 35.9671C200.432 36.2659 200.311 36.5482 200.129 36.7886L199.901 37.0365L179.959 56.4437L179.016 57.3615L179.239 58.6583L183.956 86.1353L183.956 86.1362C184.011 86.455 183.98 86.7827 183.867 87.0857C183.753 87.3886 183.561 87.6558 183.31 87.86C183.059 88.0642 182.758 88.198 182.439 88.2476C182.137 88.2943 181.829 88.2646 181.542 88.1616L181.248 88.0263L156.693 75.0867L155.529 74.4732L154.364 75.0856L129.693 88.0566L129.692 88.0571C129.406 88.2076 129.085 88.2794 128.763 88.2652C128.44 88.2509 128.126 88.1511 127.855 87.976C127.583 87.8008 127.363 87.5566 127.217 87.2684C127.079 86.9973 127.012 86.6964 127.02 86.3931L127.058 86.0705L131.76 58.658L131.982 57.3614L131.04 56.4439L111.056 36.9917L111.053 36.9895C110.822 36.7646 110.654 36.4824 110.567 36.1715C110.48 35.8606 110.478 35.5323 110.559 35.22C110.641 34.9077 110.804 34.6227 111.032 34.394C111.246 34.179 111.51 34.0211 111.8 33.9341L112.132 33.8666L139.647 29.8774Z" stroke="black" stroke-width="5"/>
<path fill-rule="evenodd" clip-rule="evenodd" d="M141.526 23.8811C131.155 20.3913 120.048 18.5 108.5 18.5C51.3385 18.5 5 64.8385 5 122C5 179.161 51.3385 225.5 108.5 225.5C165.661 225.5 212 179.161 212 122C212 95.9781 202.397 72.199 186.541 54.0136L190.13 50.5214C206.86 69.6119 217 94.6217 217 122C217 181.923 168.423 230.5 108.5 230.5C48.5771 230.5 0 181.923 0 122C0 62.0771 48.5771 13.5 108.5 13.5C120.843 13.5 132.704 15.561 143.759 19.3577L141.526 23.8811Z" fill="black"/>
<mask id="path-3-inside-1_9284_829" fill="white">
<path d="M148 154C150.209 154 152.019 155.795 151.814 157.994C151.415 162.272 150.377 166.473 148.727 170.455C146.566 175.672 143.399 180.413 139.406 184.406C135.413 188.399 130.672 191.566 125.455 193.727C120.238 195.888 114.647 197 109 197C103.353 197 97.7616 195.888 92.5446 193.727C87.3276 191.566 82.5873 188.399 78.5944 184.406C74.6015 180.413 71.4341 175.672 69.2732 170.455C67.6235 166.473 66.585 162.272 66.1859 157.994C65.9807 155.795 67.7909 154 70 154L109 154H148Z"/>
</mask>
<path d="M148 154C150.209 154 152.019 155.795 151.814 157.994C151.415 162.272 150.377 166.473 148.727 170.455C146.566 175.672 143.399 180.413 139.406 184.406C135.413 188.399 130.672 191.566 125.455 193.727C120.238 195.888 114.647 197 109 197C103.353 197 97.7616 195.888 92.5446 193.727C87.3276 191.566 82.5873 188.399 78.5944 184.406C74.6015 180.413 71.4341 175.672 69.2732 170.455C67.6235 166.473 66.585 162.272 66.1859 157.994C65.9807 155.795 67.7909 154 70 154L109 154H148Z" stroke="black" stroke-width="10" stroke-linejoin="round" mask="url(#path-3-inside-1_9284_829)"/>
<path d="M46 135.815C49 120.062 71.5 120.062 75 135.815" stroke="black" stroke-width="5" stroke-linecap="round" stroke-linejoin="round"/>
<path d="M142 135.815C145 120.062 167.5 120.062 171 135.815" stroke="black" stroke-width="5" stroke-linecap="round" stroke-linejoin="round"/>
</svg>
