<svg width="218" height="218" viewBox="0 0 218 218" fill="none" xmlns="http://www.w3.org/2000/svg">
<path d="M32 182L186 36" stroke="black" stroke-width="5" stroke-linecap="round"/>
<path d="M109 215C167.542 215 215 167.542 215 109C215 50.4578 167.542 3 109 3C50.4578 3 3 50.4578 3 109C3 167.542 50.4578 215 109 215Z" stroke="black" stroke-width="5" stroke-miterlimit="10"/>
<path fill-rule="evenodd" clip-rule="evenodd" d="M95.6983 110H59C53.4772 110 49 114.477 49 120V153.656L54 148.982V120C54 117.239 56.2386 115 59 115H90.3499L95.6983 110ZM62.4341 163H97C99.7614 163 102 160.761 102 158V126.012L107 121.337V158C107 163.523 102.523 168 97 168H59C58.4027 168 57.8176 167.948 57.2491 167.847L62.4341 163Z" fill="black"/>
<path fill-rule="evenodd" clip-rule="evenodd" d="M111.387 117.236C111.135 118.114 111 119.041 111 120V158C111 163.523 115.477 168 121 168H159C164.523 168 169 163.523 169 158V120C169 114.477 164.523 110 159 110H121C120.276 110 119.569 110.077 118.889 110.223L111.387 117.236ZM121 115H159C161.761 115 164 117.239 164 120V158C164 160.761 161.761 163 159 163H121C118.239 163 116 160.761 116 158V120C116 117.239 118.239 115 121 115Z" fill="black"/>
<path fill-rule="evenodd" clip-rule="evenodd" d="M138 70.4542V62C138 56.4772 133.523 52 128 52H90C84.4772 52 80 56.4772 80 62V100C80 105.523 84.4772 110 90 110H95.6983L101.047 105H90C87.2386 105 85 102.761 85 100V62C85 59.2386 87.2386 57 90 57H128C130.761 57 133 59.2386 133 62V75.1284L138 70.4542ZM124.476 105H128C130.761 105 133 102.761 133 100V97.0312L138 92.3569V100C138 105.523 133.523 110 128 110H119.127L124.476 105Z" fill="black"/>
</svg>
