<svg width="157" height="206" viewBox="0 0 157 206" fill="none" xmlns="http://www.w3.org/2000/svg">
<path fill-rule="evenodd" clip-rule="evenodd" d="M45.2069 0.5C43.6617 0.5 41.7378 0.965273 40.3765 2.5254C38.8437 4.28215 37.7562 6.63754 37.7492 9.27984C37.7421 11.9711 38.8573 14.6921 41.2579 17.1058C42.1098 17.9623 42.5002 18.8357 42.5002 19.5731V48.6687C42.5002 48.9439 42.4547 49.2172 42.3656 49.4776L3.14627 164.157C1.85099 167.624 0.559261 173.005 0.893199 178.124C1.22974 183.283 3.31185 188.792 9.40037 191.094C10.2175 191.403 11.0345 191.5 11.752 191.5H64.0003H64.5002H91.373C90.1836 189.928 89.1186 188.256 88.1925 186.5H64.5002H64.0003H11.752C11.4727 186.5 11.2839 186.46 11.1687 186.417C7.68627 185.1 6.15573 181.986 5.88259 177.799C5.60798 173.589 6.69969 168.921 7.841 165.878C7.84956 165.855 7.85778 165.832 7.86567 165.809L26.8962 110.163C33.7214 113.681 47.1948 114.449 65.4804 101.015C75.1969 93.876 82.0243 89.9957 86.6439 88.0244C88.9535 87.0388 90.6498 86.557 91.8363 86.3646C92.4266 86.2689 92.8594 86.25 93.1585 86.264C93.282 86.2698 93.3746 86.2809 93.4405 86.2917L109.944 134.55C111.536 134.07 113.173 133.695 114.847 133.435L86.1348 49.4776C86.0457 49.2172 86.0003 48.9439 86.0003 48.6687V19.5731C86.0003 18.8357 86.3907 17.9623 87.2425 17.1058L85.47 15.3428L87.2425 17.1058C89.6431 14.6921 90.7583 11.9711 90.7512 9.27984C90.7442 6.63754 89.6567 4.28215 88.1239 2.5254C86.7626 0.965272 84.8387 0.5 83.2935 0.5H64.5002H64.0003H45.2069ZM64.0003 5.5H45.2069C44.5391 5.5 44.2377 5.70531 44.144 5.81264C43.2727 6.81121 42.7525 8.03909 42.7492 9.29304C42.746 10.4981 43.218 11.9863 44.803 13.5799C46.2285 15.0131 47.5002 17.0809 47.5002 19.5731V48.6687C47.5002 49.4943 47.3638 50.3143 47.0966 51.0956L28.5407 105.354C32.7557 107.9 44.3557 110.33 62.52 96.9852C72.4035 89.7239 79.5761 85.6042 84.6815 83.4256C87.2344 82.3362 89.3319 81.7054 91.036 81.4291C91.2752 81.3903 91.5114 81.3577 91.7443 81.3318L81.4038 51.0956C81.1366 50.3143 81.0003 49.4943 81.0003 48.6687V19.5731C81.0003 17.0809 82.2719 15.0131 83.6974 13.5799C85.2824 11.9863 85.7544 10.4981 85.7512 9.29304C85.7479 8.03909 85.2277 6.81121 84.3564 5.81264C84.2628 5.70531 83.9613 5.5 83.2935 5.5H64.5002H64.0003Z" fill="black"/>
<circle cx="120.5" cy="169.5" r="34" stroke="black" stroke-width="5"/>
<path d="M134.184 157.728L108.728 183.184" stroke="black" stroke-width="5" stroke-linecap="round" stroke-linejoin="round"/>
<path d="M108.729 157.728L134.184 183.184" stroke="black" stroke-width="5" stroke-linecap="round" stroke-linejoin="round"/>
</svg>
