<svg width="208" height="186" viewBox="0 0 208 186" fill="none" xmlns="http://www.w3.org/2000/svg">
<path fill-rule="evenodd" clip-rule="evenodd" d="M40.2807 9.31433C47.2263 6.44985 54.6701 4.9837 62.1848 5.00014C69.6994 5.01657 77.1368 6.51526 84.0698 9.41009C91.0028 12.3049 97.2948 16.5388 102.585 21.8686C103.551 22.842 105.121 22.8553 106.103 21.8985C116.848 11.4341 131.289 5.61853 146.298 5.71245C161.306 5.80638 175.673 11.8022 186.286 22.4002C196.898 32.9981 202.903 47.3445 202.999 62.3316C203.095 77.3136 197.279 91.731 186.81 102.463L186.8 102.474L119.436 169.764L119.436 169.765C118.682 170.517 117.927 171.307 117.161 172.108L117.159 172.11L117.159 172.11C115.852 173.476 114.512 174.877 113.085 176.193C113.615 164.452 116.54 154.559 120.064 146.706C128.553 148.797 135.155 147.674 140.15 144.309C145.461 140.732 148.489 134.929 150.229 129.151C151.978 123.342 152.522 117.246 152.64 112.66C152.7 110.355 152.653 108.403 152.59 107.022C152.559 106.331 152.523 105.782 152.496 105.401C152.491 105.331 152.486 105.266 152.481 105.207C152.473 105.107 152.466 105.024 152.461 104.959L152.455 104.889L152.45 104.839L152.447 104.805L152.446 104.794L152.446 104.791C152.446 104.79 152.446 104.789 149.957 105.03L152.446 104.789C152.378 104.084 152.013 103.441 151.444 103.02C150.874 102.598 150.153 102.439 149.459 102.58C134.765 105.569 125.145 109.562 119.069 114.049C112.912 118.595 110.354 123.694 110.007 128.63C109.669 133.436 111.458 137.683 113.188 140.607C114.064 142.089 114.958 143.287 115.637 144.12L115.707 144.206C111.475 153.494 108.004 165.518 108 179.975C107.822 180.067 107.646 180.153 107.471 180.234C101.12 149.278 103.679 124.181 108.741 105.518C124.056 107.23 134.891 103.701 142.303 96.9241C150.015 89.8726 153.6 79.681 155.069 69.5827C156.544 59.4529 155.938 49.0955 154.984 41.3256C154.506 37.4284 153.936 34.1547 153.485 31.8498C153.259 30.6969 153.063 29.785 152.922 29.1572C152.852 28.8432 152.795 28.6002 152.755 28.4335C152.736 28.3501 152.72 28.2858 152.709 28.2413L152.696 28.1893L152.693 28.1746L152.692 28.17C152.691 28.1686 152.691 28.1674 150.265 28.7725L152.691 28.1674C152.52 27.4802 152.065 26.8979 151.439 26.5653C150.814 26.2326 150.077 26.1809 149.411 26.4229C125.229 35.2138 110.113 44.3574 101.155 53.2912C92.1258 62.2964 89.318 71.1412 89.9339 79.041C90.5398 86.8117 94.4274 93.2561 98.004 97.66C99.8065 99.8795 101.57 101.631 102.888 102.831C103.315 103.221 103.697 103.554 104.02 103.827C98.7301 123.116 96.0396 148.953 102.463 180.699C101.667 180.458 100.839 180.075 99.9793 179.563C98.8861 160.282 94.9472 145.202 90.2595 133.725C90.4713 133.482 90.7156 133.194 90.9844 132.865C91.8891 131.755 93.0828 130.155 94.2521 128.178C96.5678 124.262 98.9159 118.65 98.4725 112.342C98.02 105.904 94.6917 99.1695 86.4602 93.0908C78.3102 87.0723 65.3114 81.652 45.2965 77.5804C44.6024 77.4392 43.881 77.599 43.3115 78.0202C42.742 78.4414 42.378 79.0844 42.3097 79.7894L44.7981 80.0302C42.3097 79.7894 42.3096 79.7905 42.3095 79.7919L42.3091 79.7959L42.3079 79.8086L42.3039 79.8523C42.3005 79.8895 42.2957 79.9427 42.2899 80.0113C42.2782 80.1487 42.262 80.3479 42.2433 80.6043C42.2059 81.1172 42.1583 81.8596 42.1159 82.7947C42.0312 84.6638 41.9671 87.3086 42.0478 90.4331C42.2087 96.6578 42.9468 104.897 45.3041 112.725C47.6523 120.523 51.702 128.223 58.7109 132.943C65.3411 137.408 74.1987 138.931 85.786 135.998C89.8292 146.006 93.3067 158.948 94.6681 175.28C93.5954 174.239 92.5674 173.164 91.5593 172.11L91.559 172.11L91.5588 172.109C90.7919 171.308 90.0367 170.518 89.2822 169.765L89.2819 169.764L21.8962 102.463L21.8884 102.455C16.552 97.1718 12.3131 90.888 9.415 83.9645C6.51689 77.041 5.01659 69.6141 5.00014 62.1101C4.98368 54.6062 6.45141 47.1728 9.31913 40.2367C12.1868 33.3006 16.3981 26.9983 21.7113 21.6917C27.0246 16.3852 33.3351 12.1788 40.2807 9.31433ZM62.1957 0.000148609C54.0235 -0.0177242 45.9281 1.57671 38.3744 4.692C30.8206 7.80728 23.9571 12.3821 18.178 18.154C12.3989 23.9259 7.81801 30.7811 4.69848 38.3263C1.57894 45.8714 -0.0177493 53.9578 0.000148819 62.1211C0.0180469 70.2844 1.65018 78.3637 4.80277 85.8951C7.95466 93.4249 12.5642 100.259 18.3668 106.004L18.3706 106.008L85.7489 173.302L85.7491 173.303C86.3474 173.9 87.0117 174.594 87.7255 175.34C89.4756 177.168 91.5234 179.308 93.6243 181.094C96.574 183.602 100.259 186 104.359 186C108.459 186 112.144 183.602 115.094 181.094C117.195 179.308 119.242 177.168 120.993 175.34C121.706 174.594 122.371 173.9 122.969 173.303L122.969 173.302L190.355 105.988L190.378 105.966C201.772 94.2919 208.103 78.6037 207.999 62.2995C207.894 45.9954 201.362 30.3895 189.819 18.8622C178.276 7.33508 162.651 0.814692 146.329 0.712552C130.819 0.615493 115.866 6.32143 104.388 16.6556C99.0143 11.6495 92.7879 7.63195 85.9963 4.79615C78.4563 1.64785 70.368 0.0180214 62.1957 0.000148609ZM105.59 98.5153C104.515 97.4911 103.21 96.1395 101.885 94.508C98.6318 90.5019 95.4141 85.0053 94.9188 78.6524C94.4335 72.4286 96.5286 64.967 104.686 56.8314C112.602 48.9366 126.185 40.4636 148.439 32.112C148.484 32.3328 148.53 32.5657 148.578 32.8102C149.011 35.0201 149.56 38.1751 150.021 41.9348C150.947 49.4783 151.506 59.346 150.122 68.8626C148.732 78.4107 145.434 87.2868 138.929 93.2341C132.962 98.6903 123.931 102.009 110.163 100.641C110.637 99.1204 111.126 97.649 111.625 96.227C115.079 86.3898 119.033 78.8993 122.108 73.8864C123.646 71.3802 124.963 69.4946 125.886 68.246C126.348 67.6218 126.711 67.157 126.954 66.8536C127.076 66.702 127.167 66.5907 127.226 66.5201L127.255 66.4857L127.289 66.4448L127.302 66.43L127.303 66.4284L127.041 62.9046C125.996 62.0027 124.417 62.1191 123.515 63.1645L125.408 64.7975C123.515 63.1645 123.514 63.1657 123.513 63.167L123.51 63.1706L123.502 63.1805L123.475 63.2121C123.453 63.2383 123.422 63.2748 123.383 63.3217C123.305 63.4155 123.194 63.5505 123.053 63.7265C122.771 64.0785 122.368 64.5946 121.866 65.2727C120.863 66.629 119.464 68.6341 117.846 71.272C114.61 76.5471 110.494 84.3572 106.908 94.5706C106.459 95.8482 106.019 97.1632 105.59 98.5153ZM89.9485 125.632C89.2817 126.76 88.6043 127.748 87.9959 128.566C86.6909 125.792 85.3559 123.269 84.0312 120.987C80.4972 114.9 77.0453 110.538 74.4511 107.679C73.1541 106.249 72.0718 105.195 71.3009 104.489C70.9154 104.136 70.6078 103.869 70.3901 103.686C70.2813 103.595 70.1949 103.524 70.1326 103.474L70.0898 103.439L70.0572 103.413L70.0333 103.395L70.0249 103.388L70.0216 103.385C70.0202 103.384 70.0189 103.383 68.4883 105.36L70.0189 103.383C68.9271 102.538 67.3569 102.738 66.5116 103.83L66.9534 107.333L66.9572 107.336L66.9935 107.365C67.0298 107.395 67.0898 107.444 67.1722 107.513C67.337 107.652 67.5912 107.871 67.9228 108.175C68.5862 108.783 69.5594 109.728 70.7479 111.038C73.1246 113.658 76.3631 117.738 79.707 123.498C81.061 125.83 82.4337 128.44 83.7743 131.344C73.638 133.748 66.548 132.193 61.5039 128.796C55.8522 124.989 52.2797 118.549 50.0918 111.284C47.9131 104.048 47.2012 96.3005 47.0462 90.3039C46.9697 87.3455 47.0293 84.8403 47.1085 83.0706C65.1413 86.9885 76.5229 91.968 83.49 97.113C90.7308 102.46 93.1502 107.932 93.4848 112.692C93.8285 117.582 92.0032 122.158 89.9485 125.632ZM117.491 138.062C117.727 138.461 117.965 138.836 118.198 139.183C118.595 138.445 118.994 137.729 119.393 137.036C122.241 132.087 125.094 128.29 127.246 125.718C128.323 124.431 129.226 123.45 129.867 122.783C130.188 122.449 130.444 122.194 130.623 122.018C130.713 121.93 130.784 121.862 130.835 121.814C130.86 121.79 130.88 121.771 130.895 121.757L130.913 121.74L130.919 121.734L130.922 121.732C130.923 121.731 130.923 121.731 132.62 123.567L130.923 121.731C131.938 120.794 133.519 120.856 134.456 121.871L134.316 125.403L134.313 125.407L134.278 125.439C134.245 125.471 134.192 125.522 134.119 125.593C133.975 125.734 133.755 125.953 133.471 126.248C132.903 126.839 132.078 127.735 131.081 128.927C129.086 131.311 126.408 134.871 123.727 139.531C123.254 140.352 122.781 141.207 122.313 142.095C129.2 143.58 133.973 142.441 137.357 140.162C141.311 137.499 143.862 132.955 145.441 127.709C147.012 122.493 147.529 116.889 147.642 112.531C147.687 110.797 147.667 109.278 147.628 108.082C134.933 110.911 126.933 114.457 122.039 118.071C116.873 121.886 115.224 125.721 114.995 128.98C114.757 132.368 116.023 135.579 117.491 138.062Z" fill="black"/>
</svg>
